<svg width="158" height="158" viewBox="0 0 158 158" fill="none" xmlns="http://www.w3.org/2000/svg">
<rect width="158" height="158" rx="52" fill="#0060E0"/>
<g style="mix-blend-mode:lighten">
<path fill-rule="evenodd" clip-rule="evenodd" d="M28.0239 118.458V73.8997C25.6115 74.8304 23.3536 74.851 21.4773 74.2099C20.0133 73.7136 18.7761 72.8242 17.8689 71.6764C16.9616 70.5286 16.3843 69.1326 16.209 67.5918C15.9409 65.203 16.6523 62.5041 18.6833 59.9706C18.7864 59.8465 18.8998 59.7224 19.0339 59.619L77.8611 13.5711C78.624 12.8679 79.7993 12.7956 80.6447 13.4574L139.596 59.4225C139.689 59.4949 139.771 59.5673 139.853 59.6603C142.586 62.6075 143.266 65.8752 142.606 68.6362C142.276 70.0012 141.627 71.2214 140.73 72.2348C139.833 73.2482 138.688 74.0341 137.389 74.4995C135.327 75.244 132.874 75.2233 130.389 74.0445V118.448H138.637V127H20.3638V118.448H28.0239V118.458ZM124.616 118.458V71.511C124.616 70.4665 84.1707 38.3995 79.7169 34.9147C74.9847 38.5236 33.8077 70.3321 33.8077 71.6764V118.458H124.616ZM81.0056 67.871C79.655 67.3436 78.2529 67.0644 76.8095 67.0644C74.6445 67.0644 72.8609 67.7572 71.4588 69.1429L59.3861 81.2417L60.6439 82.5136L56.0664 87.136L48.3547 79.3907L52.9322 74.7993L54.355 76.1954L66.3555 64.1689C68.005 62.5247 69.7783 61.7078 71.6753 61.7078C74.861 61.6975 77.9642 63.7553 81.0056 67.871ZM99.3157 64.4481C100.625 64.4481 101.883 64.6756 103.058 65.0789L100.079 68.3156C93.3154 75.6576 100.945 79.9077 107.677 74.8614L110.275 72.9173C110.512 73.8376 110.646 74.8097 110.646 75.8024C110.646 82.0793 105.574 87.167 99.3157 87.167C97.2743 87.167 95.3567 86.6293 93.7072 85.6779L88.2018 91.5412C93.3772 96.5151 98.563 101.489 103.739 106.453L96.7073 113.505C91.8102 108.376 86.9131 103.257 82.0159 98.1283L72.366 108.397C71.634 109.648 70.2732 110.496 68.7164 110.496C66.3864 110.496 64.4894 108.604 64.4894 106.256C64.4894 105.243 64.8399 104.312 65.4379 103.588H65.4276L65.4688 103.557C65.7781 103.185 66.139 102.875 66.5514 102.627L77.3972 93.2991L64.0358 79.2356L69.5824 73.6722C74.7373 78.6358 78.9127 82.617 84.0676 87.5703L90.0781 82.3999C88.7585 80.5385 87.9853 78.2635 87.9853 75.8128C87.9853 69.5359 93.0576 64.4481 99.3157 64.4481ZM62.3347 66.4336L56.819 71.966L54.623 69.7633L60.1387 64.231L62.3347 66.4336Z" fill="white"/>
</g>
</svg>
