<svg width="366" height="299" viewBox="0 0 366 299" fill="none" xmlns="http://www.w3.org/2000/svg">
<g clip-path="url(#clip0_154_3)">
<g opacity="0.203">
<path d="M137.721 205.984H12.0391V116.084C12.0391 79.7064 15.1699 51.0814 21.4316 30.209C27.9915 9.03841 39.9186 -9.89583 57.2129 -26.5938C74.5072 -43.2917 96.5723 -56.4115 123.408 -65.9531L148.008 -14.0703C122.961 -5.72135 104.921 5.90755 93.8887 20.8164C83.1543 35.7253 77.4889 55.554 76.8926 80.3027H137.721V205.984ZM347.488 205.984H221.807V116.084C221.807 79.4082 224.938 50.6341 231.199 29.7617C237.759 8.88932 249.686 -9.89583 266.98 -26.5938C284.573 -43.2917 306.638 -56.4115 333.176 -65.9531L357.775 -14.0703C332.729 -5.72135 314.689 5.90755 303.656 20.8164C292.922 35.7253 287.257 55.554 286.66 80.3027H347.488V205.984Z" fill="#0060E0"/>
</g>
</g>
<defs>
<clipPath id="clip0_154_3">
<rect width="366" height="299" fill="white"/>
</clipPath>
</defs>
</svg>
